<?xml version="1.0" encoding="UTF-8"?>
<svg width="80px" height="42px" viewBox="0 0 80 42" version="1.1" xmlns="http://www.w3.org/2000/svg" xmlns:xlink="http://www.w3.org/1999/xlink">
    <!-- Generator: Sketch 54.1 (76490) - https://sketchapp.com -->
    <title>Combined Shape</title>
    <desc>Created with Sketch.</desc>
    <defs>
        <path d="M233.024001,88.1163256 C232.125551,88.2950605 231.154061,88.3571622 230.272728,88.3038472 C229.853933,89.7048471 229.086618,91.0351011 228.092279,92.0487384 C227.382347,92.7724337 226.072115,93.416105 225.035223,93.3627557 C224.127017,93.316365 223.326161,93.0426597 222.664371,92.4801722 C222.002353,91.9165249 221.483965,91.1777526 221.113198,90.2545772 C220.896941,89.716281 220.724979,89.140919 220.620109,88.5464253 C220.230409,88.614353 219.841964,88.6611185 219.467474,88.685197 C219.262205,90.1113047 218.69812,91.5224129 217.853779,92.6496841 C217.249608,93.4561964 216.027213,94.2523245 214.992462,94.3273221 C214.077164,94.394243 213.230979,94.2269407 212.481669,93.7550329 C211.732243,93.2831251 211.099851,92.619685 210.587832,91.7577899 C210.535006,91.6687467 210.483397,91.5783894 210.433147,91.4867977 C210.098847,92.0034217 209.72331,92.4990438 209.326678,92.9325285 C208.658056,93.6624952 207.845594,94.1135857 206.871555,94.2913553 C205.441736,94.5513434 204.129552,93.7658238 203.279556,92.7169828 C202.025275,91.1703869 201.21945,89.2371419 200.628069,87.3694495 C199.849021,84.9095619 199.466591,82.2363508 199.298492,79.6942448 C199.127188,77.1054742 199.318059,74.3989312 200.104774,71.8812685 C200.65908,70.1080163 202.023101,68.3392082 204.03343,68.0392219 C205.058963,67.8858956 205.960338,68.1825487 206.666379,68.9214038 C207.532167,69.8280291 207.91883,71.1146369 208.100203,72.3201374 C208.493847,74.9377955 208.052257,77.6310057 207.475752,80.158668 C206.763989,83.2796364 205.721291,86.3728284 204.607989,89.4249111 C204.907456,90.1459892 205.224431,90.6404111 205.557769,90.9103988 C205.891222,91.1803864 206.263352,91.2781597 206.679882,91.2070519 C207.33626,91.0937237 207.86642,90.7881821 208.283637,90.2826497 C208.61684,89.8785816 209.004581,89.2679556 209.466844,88.4519066 C209.323437,87.2832488 209.307385,86.0552056 209.602267,84.9007041 C209.859141,83.8957366 210.57735,82.6600074 211.353384,81.9688759 C212.096474,81.3065897 213.37151,80.7654533 214.368479,80.695071 C215.646741,80.6050739 216.979488,81.0135222 217.883728,81.9792602 C218.823332,82.98192 219.364494,84.2926469 219.539698,85.6506798 C219.873288,85.6154127 220.232248,85.5586821 220.617872,85.4813471 C220.716489,84.7350448 220.890396,83.9968257 221.177541,83.3052467 C221.581505,82.3322013 222.465869,81.1967883 223.328785,80.6041468 C224.150289,80.0404995 225.475808,79.6589358 226.471516,79.7122852 C227.72733,79.7807115 228.978582,80.3478381 229.726047,81.4287419 C230.502489,82.5513975 230.832757,83.9268824 230.800243,85.2907697 C231.56336,85.3059304 232.474674,85.2260446 233.548951,85.0624419 C233.994691,82.9139278 234.601829,80.7981037 235.366282,78.7684715 C236.351098,76.1529831 237.734105,73.5630932 239.660961,71.3983592 C240.981077,69.9147652 243.08764,68.6671216 245.273333,69.0433067 C246.31074,69.2213825 247.057441,69.7366893 247.490774,70.5725326 C247.92435,71.4083759 247.953191,72.4011485 247.632432,73.5319299 C247.057198,75.5608811 245.65662,77.3327353 244.199572,78.8608483 C242.098826,81.0645363 239.487555,82.9777382 237.019032,84.9054088 C236.77813,85.8503235 236.561827,86.8275145 236.367214,87.8358687 C237.445459,86.1608432 238.663058,84.2699008 240.474794,83.3082914 C241.547586,82.7384489 242.84698,82.097376 244.205268,82.3589248 C245.170089,82.5436785 245.857291,83.0122404 246.246152,83.7468031 C246.635134,84.4802528 246.673184,85.2982885 246.38272,86.1942324 C246.063052,87.1803272 245.504662,88.0273002 244.756871,88.7473942 C243.88366,89.5876894 242.727256,90.0250881 241.580425,90.4569219 C241.534862,91.0189737 241.640287,91.4341129 241.895367,91.7034526 C242.150448,91.9716792 242.602927,92.2476967 243.247959,92.5370699 C243.892628,92.8253301 244.103478,93.3072477 243.888386,93.9705801 C243.742972,94.4179956 243.428515,94.7752601 242.953617,95.0468257 C242.478477,95.3183913 241.907485,95.3840568 241.230341,95.249387 C240.069574,95.0190014 239.237564,94.4291253 238.678326,93.5142609 C238.03281,92.4580488 238.084795,91.2382295 238.274076,90.1441763 C238.392224,89.4608104 238.903233,88.9766668 239.68241,88.7830094 C240.541685,88.5693184 241.19944,88.2999788 241.643559,87.9727645 C242.087314,87.6455502 242.390259,87.2025866 242.544035,86.6416479 C242.633222,86.3155466 242.631646,86.0584496 242.537612,85.8703571 C242.443699,85.6811515 242.294165,85.5687412 242.090828,85.5309001 C241.591331,85.4407492 240.945814,85.703411 240.181422,86.3099817 C239.320935,86.9933476 238.522976,87.9371493 237.921689,88.8030429 C237.218128,89.8147361 236.543892,90.9744547 236.058937,92.109688 C235.702067,92.9444183 235.377309,93.4975663 235.081997,93.7691319 C234.786686,94.0406975 234.388494,94.144204 233.883423,94.0829905 C233.378231,94.0228899 233.041476,93.7758097 232.867828,93.3361851 C232.693937,92.8965604 232.625471,92.236567 232.672852,91.3651085 C232.731662,90.2819868 232.86872,89.1956602 233.024001,88.1163256 Z M197.527231,71.9633946 C197.834354,72.0689522 198.086417,72.2767341 198.283776,72.5834068 C198.932584,73.5945378 198.591137,74.3478859 197.301507,74.8690073 C196.931816,75.0112323 196.747446,75.0834559 196.379662,75.2290144 C195.347099,75.6390224 194.336823,76.0768088 193.353363,76.5334845 C192.334267,77.0068271 191.320893,77.5290596 190.349111,78.0868484 C189.920307,78.3290753 189.706978,78.4524111 189.282583,78.6990826 C190.580675,80.6680102 191.837412,82.654716 193.047431,84.6714223 C194.284862,83.9047406 195.541241,83.1658371 196.81514,82.454712 C197.372895,82.1558173 197.813021,82.053593 198.12503,82.1435948 C198.43704,82.2335966 198.695419,82.4402673 198.899214,82.7602736 C199.214203,83.2558389 199.308711,83.7236259 199.19287,84.1625234 C199.077028,84.6025321 198.749883,84.9647614 198.213699,85.2558783 C196.98199,85.9247803 195.766727,86.6192384 194.569102,87.3403637 C194.78124,87.7348159 194.886951,87.9325976 195.09754,88.3270498 C196.038334,90.1770862 197.045988,92.3371286 196.859951,94.4160584 C196.727424,95.8971987 195.801884,97.2861149 194.56076,98.198355 C193.790032,98.7650329 192.928968,99.0905948 191.967436,99.1850411 C191.006023,99.2805986 190.135186,99.1783743 189.346344,98.8672571 C189.02623,98.7416991 188.72459,98.5216947 188.442017,98.206133 C188.159445,97.8905712 187.975553,97.562787 187.894511,97.220558 C187.813589,96.8783291 187.872225,96.6283242 188.070538,96.4716544 C188.210454,96.3605411 188.395299,96.3049845 188.622573,96.3060956 C188.849965,96.3072067 189.203449,96.3783192 189.676706,96.5227665 C190.957994,96.9316635 191.985194,96.8427728 192.82564,96.233872 C193.50031,95.7460846 193.841637,95.0116257 193.817324,94.0527179 C193.78455,92.7604703 193.147422,91.479334 192.442124,90.3726456 C192.13798,89.8848582 191.985313,89.6404089 191.678309,89.1537327 C191.291813,89.4059599 191.099697,89.5337402 190.718088,89.7904119 C190.413229,89.9948604 190.082152,90.0826399 189.71973,90.0559727 C189.357546,90.0281943 189.040293,89.8537465 188.768328,89.5292956 C188.417228,89.1115096 188.251928,88.7181686 188.280292,88.3481613 C188.308657,87.978154 188.535453,87.6481475 188.961993,87.3648086 C189.347059,87.1081369 189.722948,86.8525763 190.088706,86.5947935 C188.821124,84.6314215 187.491807,82.7036058 186.139489,80.7902349 C185.09632,81.6469184 183.932065,82.5202689 183.380388,83.715848 C183.036797,84.460307 183.191729,85.1847657 183.784761,85.8258895 C184.196284,86.2714538 184.726271,86.599238 185.370192,86.8159089 C185.559805,86.8770213 185.707348,86.967023 185.813536,87.0859142 C186.025793,87.3248078 186.072988,87.6303694 185.961317,88.0003767 C185.849528,88.370384 185.627498,88.6748344 185.294633,88.9159502 C184.934952,89.1770665 184.535228,89.2959577 184.089381,89.2748462 C183.808954,89.2626237 183.406488,89.1092874 182.876621,88.8203928 C182.346992,88.5303871 181.841913,88.1437128 181.363293,87.6581477 C179.776074,86.1903411 179.610058,84.000298 180.681711,82.2269298 C182.426603,79.3413175 185.472566,77.2757213 188.395657,75.6123552 C190.852641,74.21455 193.508295,72.9767478 196.276334,72.0600631 C196.801553,71.8889487 197.220585,71.8578369 197.527231,71.9633946 Z M202.771138,73.3845332 C202.46801,75.3244445 202.477736,77.3354637 202.585302,79.2598202 C202.707057,81.4386095 203.047833,83.6229541 203.515628,85.793966 C204.168916,83.5018485 204.76888,81.1730661 205.111601,78.8653938 C205.402715,76.9054833 205.556052,74.800024 205.158633,72.8045597 C204.883654,71.4235117 204.462318,70.7646529 203.881808,70.8557599 C203.404286,70.9302009 203.022086,71.7801621 202.771138,73.3845332 Z M216.123281,90.4066797 C216.462746,89.8793891 216.664098,89.1421053 216.722844,88.1925206 C216.165671,87.8244556 215.712284,87.3283178 215.363834,86.699492 C215.0155,86.0706662 214.798137,85.3945343 214.722803,84.6653271 C214.691126,84.3595678 214.685942,84.050347 214.708404,83.7399724 C214.65461,83.7434339 214.627656,83.7457415 214.573977,83.7503567 C213.85692,83.8115086 213.301475,84.2395716 212.927338,85.0230078 C212.494915,85.9299016 212.497565,87.2683198 212.648464,88.2063663 C212.812724,89.2274871 213.080771,90.0386147 213.504439,90.5555211 C213.928338,91.0724274 214.3694,91.3089582 214.840296,91.2662673 C215.359572,91.2189611 215.783471,90.9339704 216.123281,90.4066797 Z M226.732193,89.600468 C227.144143,89.1168447 227.452393,88.4082264 227.652835,87.469974 C227.161712,87.0339012 226.791744,86.4841711 226.544756,85.8149849 C226.297883,85.1457987 226.186653,84.444139 226.222247,83.7100058 C226.237191,83.4003477 226.278489,83.0930092 226.347281,82.7856706 C226.29389,82.7833511 226.267195,82.7821913 226.213805,82.7798718 C225.502161,82.7508776 224.894332,83.1080862 224.410282,83.8422194 C223.854703,84.6830512 223.653234,86.014465 223.659737,86.9759128 C223.66681,88.015065 223.807701,88.8547371 224.144699,89.4218637 C224.481926,89.9901501 224.878132,90.2800921 225.345869,90.2963288 C225.861519,90.3137254 226.319787,90.0829315 226.732193,89.600468 Z M242.269687,72.8218526 C241.393326,73.9314875 240.686372,75.1791311 240.086418,76.4256617 C239.290883,78.0795407 238.621009,79.7812776 238.007362,81.5130648 C239.465379,80.2921325 240.860747,79.0122127 242.020544,77.6154306 C243.01251,76.4212098 243.941099,75.0945451 244.337231,73.5742229 C244.487492,72.9977025 244.521664,72.5347054 244.446776,72.1997003 C244.372009,71.8646952 244.190484,71.6721507 243.905836,71.6242929 C243.511643,71.5597404 242.951799,71.957072 242.269687,72.8218526 Z M244.036773,104.222614 C245.378319,102.837899 246.495515,101.200792 247.630705,99.6336663 C246.298857,100.180898 244.996106,100.88186 243.919807,101.827183 C243.05115,102.590096 242.487587,103.350714 242.196983,104.070031 C242.073707,104.375196 242.014114,104.643649 242.016918,104.874244 C242.019722,105.104839 242.115422,105.258568 242.304718,105.334286 C242.619977,105.462777 243.20025,105.086483 244.036773,104.222614 Z M259.604711,95.1777984 C259.582744,95.4462519 259.467764,95.7387972 259.26211,96.0531401 C259.013104,96.4340228 258.766669,96.7036234 258.524791,96.8619421 C258.282095,97.021408 257.998502,97.1258066 257.673661,97.1739905 C255.630903,97.5032475 253.610347,97.8921608 251.592478,98.3476138 C249.621932,100.967903 247.628134,103.716682 245.297109,105.934291 C244.246635,106.934681 242.644749,108.461654 241.038306,107.866238 C240.435948,107.642527 240.032117,107.137742 239.847963,106.417278 C239.663692,105.696813 239.728309,104.87195 240.066003,103.94613 C240.377407,103.091438 240.84048,102.270017 241.464104,101.491043 C242.25307,100.504419 243.305648,99.7472427 244.33135,99.0784037 C245.932886,98.0344181 247.807965,97.3391926 249.661077,96.6910038 C249.807138,96.4615564 249.880403,96.3468328 250.027282,96.1173854 C250.453081,95.5162333 251.038028,94.6431861 251.792991,93.5039799 C250.985563,94.3701437 250.176732,95.2753136 249.093891,95.8236928 C248.242177,96.2550538 247.534655,96.3560107 246.944333,96.1173854 C246.279928,95.8500792 245.895845,95.2695774 245.776541,94.3632603 C245.657472,93.4580904 245.808558,92.4301662 246.279577,91.3357023 C246.805633,90.1127478 247.387775,88.8806155 248.089455,87.7368204 C248.789732,86.5941725 249.633851,85.5478925 250.500288,84.5142321 C250.916154,84.048454 251.338915,83.7616448 251.76448,83.6549517 C252.189811,83.5482587 252.750921,83.6297125 253.438228,83.9073439 C253.825583,84.0645153 254.063254,84.2366008 254.15019,84.4201587 C254.237126,84.6037166 254.217963,84.8182499 254.094336,85.0614641 C254.023409,85.201427 253.689337,85.6499966 253.099014,86.358989 C252.620283,86.9349018 252.181398,87.468367 251.826643,87.9536481 C251.341953,88.616751 250.89629,89.2626454 250.484747,89.8833005 C250.073555,90.5039556 249.771266,91.0282428 249.572856,91.4515732 C249.258414,92.1227068 249.266711,92.5242397 249.593889,92.6584664 C249.82747,92.7548343 250.24357,92.6125769 250.855159,92.2362832 C251.466631,91.8599895 252.245431,91.227862 253.204296,90.3490786 C254.359817,89.2890318 255.438453,88.1498256 256.512764,87.0094722 C256.93272,86.5551664 257.348236,86.2809768 257.756858,86.1891979 C258.164895,86.097419 258.655078,86.184609 259.219109,86.4542096 C259.612073,86.6423564 259.854068,86.8259143 259.945794,87.0014416 C260.037404,87.178116 260.013801,87.396091 259.86809,87.6198022 C258.959119,89.0159894 257.726945,90.3399007 256.64048,91.6775789 C255.646678,92.9464228 254.665846,94.2244446 253.696698,95.5116444 C255.348011,95.1089642 256.999909,94.7556153 258.688029,94.5341986 C258.970103,94.5055177 259.188495,94.5330513 259.340515,94.6145052 C259.537874,94.7211982 259.626796,94.909345 259.604711,95.1777984 Z" id="path-1"></path>
        <filter x="-1.2%" y="-2.5%" width="102.5%" height="110.0%" filterUnits="objectBoundingBox" id="filter-2">
            <feOffset dx="0" dy="2" in="SourceAlpha" result="shadowOffsetOuter1"></feOffset>
            <feColorMatrix values="0 0 0 0 0   0 0 0 0 0   0 0 0 0 0  0 0 0 0.1 0" type="matrix" in="shadowOffsetOuter1"></feColorMatrix>
        </filter>
    </defs>
    <g id="Intro-/-Random-/-Quick-Look" stroke="none" stroke-width="1" fill="none" fill-rule="evenodd">
        <g id="03---Quick-Look" transform="translate(-180.000000, -68.000000)">
            <g id="Combined-Shape">
                <use fill="black" fill-opacity="1" filter="url(#filter-2)" xlink:href="#path-1"></use>
                <use fill="#FFFFFF" fill-rule="evenodd" xlink:href="#path-1"></use>
            </g>
        </g>
    </g>
</svg>